<?xml version="1.0" encoding="utf-8"?>
<!-- Generator: Adobe Illustrator 16.0.0, SVG Export Plug-In . SVG Version: 6.00 Build 0)  -->
<!DOCTYPE svg PUBLIC "-//W3C//DTD SVG 1.1//EN" "http://www.w3.org/Graphics/SVG/1.1/DTD/svg11.dtd">
<svg version="1.1" id="Capa_1" xmlns="http://www.w3.org/2000/svg" xmlns:xlink="http://www.w3.org/1999/xlink" x="0px" y="0px"
	 width="532.12px" height="214.196px" viewBox="0 0 532.12 214.196" enable-background="new 0 0 532.12 214.196"
	 xml:space="preserve">
<g>
	<g>
		<path fill="#FFFFFF" d="M529.948,143.718c0,37.724-28.32,68.308-63.265,68.308H65.434c-34.939,0-63.263-30.584-63.263-68.308
			V70.479c0-37.722,28.323-68.308,63.263-68.308h401.25c34.944,0,63.265,30.585,63.265,68.308V143.718z"/>
		<path fill="#941914" d="M466.684,214.196H65.434C29.354,214.196,0,182.579,0,143.718V70.479C0,31.618,29.354,0,65.434,0h401.25
			c36.082,0,65.437,31.618,65.437,70.479v73.239C532.12,182.579,502.766,214.196,466.684,214.196z M65.434,4.342
			c-33.686,0-61.091,29.671-61.091,66.137v73.239c0,36.465,27.405,66.138,61.091,66.138h401.25
			c33.688,0,61.093-29.673,61.093-66.138V70.479c0-36.466-27.404-66.137-61.093-66.137H65.434z"/>
	</g>
</g>
<g>
	<path d="M516.717,140.163c0,34.064-26.902,61.68-60.087,61.68H75.494c-33.189,0-60.092-27.615-60.092-61.68V74.034
		c0-34.064,26.903-61.679,60.092-61.679H456.63c33.185,0,60.087,27.614,60.087,61.679V140.163z"/>
</g>
<g>
	<path fill="#FFFFFF" d="M131.575,49.288l-20.218,54.593H93.328l-8.362-29.578l-8.732,29.578H58.393L37.79,49.288h24.621
		l8.433,26.732l8.033-26.732h18.541l7.921,26.711l8.842-26.711H131.575z"/>
</g>
<g>
	<path fill="#FFFFFF" d="M195.288,103.881h-24.525V71.028c0-3.004-0.376-5.071-1.131-6.199c-0.753-1.128-2.21-1.69-4.371-1.69
		c-1.674,0-3.13,0.438-4.374,1.313c-1.243,0.88-1.967,1.782-2.17,2.711c-0.202,0.931-0.306,2.882-0.306,5.853v30.865h-24.525V30.608
		h24.525V55.73c4.426-5.044,10.203-7.568,17.333-7.568c3.605,0,6.771,0.546,9.496,1.639c2.725,1.089,4.824,2.493,6.3,4.212
		c1.476,1.717,2.469,3.38,2.982,4.991c0.512,1.612,0.767,4.726,0.767,9.341V103.881z"/>
</g>
<g>
	<path fill="#FFFFFF" d="M231.46,105.008c-10.098,0-18.117-2.817-24.062-8.457c-5.945-5.635-8.919-12.246-8.919-19.832
		c0-8.159,3.103-14.958,9.308-20.397c6.205-5.439,14.273-8.16,24.211-8.16c10.014,0,18.065,2.683,24.152,8.051
		c6.083,5.367,9.125,12.097,9.125,20.185c0,8.159-3.081,14.968-9.245,20.422C249.865,102.279,241.672,105.008,231.46,105.008z
		 M231.82,92.017c3.709,0,5.974-1.728,6.794-5.178c0.817-3.458,1.227-7.06,1.227-10.816c0-5.118-0.58-8.804-1.737-11.058
		c-1.159-2.257-3.231-3.384-6.225-3.384c-2.753,0-4.769,1.165-6.044,3.491c-1.278,2.325-1.917,6.154-1.917,11.486
		c0,6.264,0.66,10.405,1.977,12.426C227.212,91.004,229.185,92.017,231.82,92.017z"/>
</g>
<g>
	<g>
		<g>
			<path fill="#E30613" d="M327.854,102.954h-22.901V70.587c0-2.96-0.35-4.993-1.061-6.109c-0.705-1.111-2.062-1.664-4.078-1.664
				c-1.565,0-2.923,0.432-4.085,1.293c-1.165,0.865-1.841,1.752-2.026,2.672c-0.189,0.916-0.288,2.835-0.288,5.763v30.412h-22.901
				V33.529h22.901v21.987c4.134-4.973,9.526-7.455,16.194-7.455c3.36,0,6.32,0.535,8.861,1.611c2.543,1.074,4.51,2.459,5.883,4.15
				c1.379,1.693,2.306,3.331,2.785,4.919c0.477,1.585,0.716,4.654,0.716,9.201V102.954z"/>
		</g>
		<g>
			<path fill="#FFFFFF" d="M328.27,103.333h-23.73V70.587c0-2.878-0.336-4.872-0.998-5.917c-0.633-0.991-1.846-1.474-3.727-1.474
				c-1.462,0-2.742,0.406-3.827,1.211c-1.077,0.796-1.702,1.622-1.88,2.442c-0.182,0.89-0.283,2.808-0.283,5.693v30.791H270.1
				V33.151h23.725V54.43c4.107-4.479,9.41-6.753,15.785-6.753c3.402,0,6.451,0.557,9.031,1.65c2.599,1.095,4.637,2.531,6.051,4.267
				c1.396,1.721,2.352,3.421,2.847,5.046c0.491,1.631,0.731,4.677,0.731,9.303V103.333z M305.365,102.571h22.079V67.943
				c0-4.494-0.234-7.555-0.707-9.096c-0.46-1.537-1.373-3.151-2.716-4.796c-1.326-1.63-3.252-2.988-5.725-4.034
				c-2.477-1.045-5.404-1.576-8.688-1.576c-6.494,0-11.836,2.456-15.864,7.308l-0.747,0.893v-22.73h-22.074v68.66h22.074V72.542
				c0-2.975,0.1-4.882,0.301-5.837c0.205-1,0.936-1.975,2.168-2.893c1.236-0.918,2.698-1.382,4.348-1.382
				c2.164,0,3.662,0.624,4.439,1.854c0.752,1.184,1.111,3.242,1.111,6.302V102.571z"/>
		</g>
	</g>
</g>
<g>
	<g>
		<path fill="#E30613" d="M68.185,184.523H46.083V112.89h20.329v7.71c2.84-5.889,8.143-8.837,15.895-8.837
			c6.722,0,11.983,2.527,15.787,7.577c3.803,5.051,5.706,11.933,5.706,20.64c0,8.713-1.948,15.633-5.844,20.773
			c-3.897,5.139-9.038,7.708-15.427,7.708c-6.276,0-11.06-2.318-14.344-6.958V184.523z M68.185,147.42
			c0,2.428,0.571,4.312,1.715,5.648c1.145,1.336,2.568,2.011,4.266,2.011c2.658,0,4.486-1.188,5.483-3.563
			c0.998-2.376,1.496-6.022,1.496-10.95c0-5.675-0.571-9.662-1.718-11.967c-1.144-2.299-2.861-3.448-5.149-3.448
			c-1.368,0-2.725,0.515-4.071,1.553c-1.351,1.03-2.022,2.727-2.022,5.083V147.42z"/>
		<path fill="#FFFFFF" d="M68.597,184.936H45.67v-72.459h21.155v6.49c3.054-5.057,8.253-7.617,15.482-7.617
			c6.825,0,12.247,2.605,16.117,7.741c3.841,5.102,5.788,12.13,5.788,20.888c0,8.76-1.995,15.834-5.927,21.024
			c-3.961,5.222-9.263,7.87-15.756,7.87c-5.93,0-10.61-2.066-13.932-6.145V184.936z M46.496,184.11h21.275v-23.906l0.75,1.059
			c3.187,4.503,7.9,6.785,14.007,6.785c6.221,0,11.301-2.537,15.097-7.545c3.822-5.043,5.761-11.948,5.761-20.523
			s-1.893-15.435-5.623-20.391c-3.704-4.918-8.905-7.413-15.457-7.413c-7.547,0-12.77,2.895-15.523,8.603l-0.785,1.628v-9.104
			H46.496V184.11z M74.166,155.493c-1.813,0-3.354-0.725-4.58-2.154c-1.204-1.408-1.814-3.398-1.814-5.918v-15.633
			c0-2.486,0.735-4.305,2.184-5.411c1.409-1.087,2.863-1.638,4.322-1.638c2.449,0,4.305,1.237,5.519,3.677
			c1.186,2.382,1.761,6.356,1.761,12.151c0,4.956-0.514,8.695-1.527,11.109C78.967,154.209,76.994,155.493,74.166,155.493z
			 M74.277,125.564c-1.271,0-2.556,0.494-3.819,1.467c-1.235,0.943-1.861,2.542-1.861,4.756v15.633c0,2.316,0.544,4.126,1.617,5.379
			c1.076,1.257,2.369,1.867,3.952,1.867c2.498,0,4.167-1.082,5.103-3.31c0.97-2.313,1.463-5.944,1.463-10.79
			c0-5.586-0.563-9.551-1.675-11.783C77.979,126.618,76.416,125.564,74.277,125.564z"/>
	</g>
</g>
<g>
	<g>
		<path fill="#E30613" d="M129.835,94.257v73.08H108.07v-73.08H129.835z"/>
		<path fill="#FFFFFF" d="M130.248,167.75h-22.591V93.844h22.591V167.75z M108.483,166.924h20.939V94.67h-20.939V166.924z"/>
	</g>
</g>
<g>
	<path fill="#E30613" d="M250.035,112.89l-22.096,58.999c-1.702,4.462-4.138,7.95-7.312,10.467
		c-3.176,2.517-8.068,3.774-14.68,3.774c-1.587,0-5.365,0-11.076,0v-14.937c3.048,0,5.537-0.056,7.974-0.056
		c6.35,0,9.527-1.354,9.527-4.067c0-0.892-0.315-2.122-0.942-3.696l-20.216-50.484h23.639l9.315,29.054l9.723-29.054H250.035z"/>
	<path fill="#FFFFFF" d="M205.948,186.543h-11.489V170.78h0.413c1.608,0,3.06-0.016,4.431-0.029
		c1.229-0.014,2.392-0.025,3.543-0.025c6.047,0,9.114-1.23,9.114-3.655c0-0.829-0.307-2.022-0.913-3.544l-20.442-51.049h24.55
		l9.023,28.141l9.417-28.141h17.035l-22.305,59.557c-1.723,4.514-4.226,8.096-7.441,10.646
		C217.648,185.243,212.622,186.543,205.948,186.543z M195.285,185.717h10.663c6.483,0,11.336-1.24,14.423-3.687
		c3.098-2.456,5.514-5.917,7.183-10.29l21.886-58.438h-15.25l-10.028,29.969l-9.609-29.969h-22.727l19.989,49.917
		c0.654,1.644,0.971,2.902,0.971,3.851c0,3.015-3.251,4.481-9.94,4.481c-1.149,0-2.31,0.012-3.535,0.025
		c-1.256,0.014-2.578,0.026-4.027,0.029V185.717z"/>
</g>
<g>
	<path fill="#FFFFFF" d="M286.805,132.932v40.582h-20.189v-40.582h-8.162v-13.866h8.162c0-4.499,0.198-7.826,0.589-9.984
		c0.396-2.161,1.379-4.229,2.957-6.21c1.571-1.979,3.687-3.499,6.333-4.549c2.65-1.052,6.211-1.582,10.687-1.582
		c4.798,0,9.396,0.375,13.802,1.125v13.974c-3.404-0.464-5.941-0.699-7.627-0.699c-1.683,0-3.224,0.341-4.617,1.019
		c-1.397,0.678-2.094,2.341-2.094,4.979v1.927h13.961v13.866H286.805z"/>
</g>
<g>
	<path fill="#FFFFFF" d="M326.791,174.639c-9.148,0-16.414-2.811-21.803-8.432c-5.381-5.621-8.08-12.217-8.08-19.781
		c0-8.139,2.811-14.919,8.434-20.345c5.624-5.425,12.934-8.139,21.936-8.139c9.076,0,16.367,2.68,21.883,8.03
		c5.516,5.358,8.27,12.068,8.27,20.134c0,8.133-2.791,14.927-8.378,20.369C343.465,171.919,336.045,174.639,326.791,174.639z
		 M327.117,161.684c3.357,0,5.41-1.722,6.154-5.168c0.74-3.441,1.111-7.041,1.111-10.786c0-5.104-0.523-8.782-1.572-11.03
		c-1.052-2.246-2.93-3.369-5.64-3.369c-2.494,0-4.32,1.158-5.479,3.479c-1.156,2.32-1.735,6.142-1.735,11.455
		c0,6.25,0.599,10.381,1.792,12.398C322.941,160.675,324.728,161.684,327.117,161.684z"/>
</g>
<g>
	<path fill="#FFFFFF" d="M377.844,173.514h-22.878v-54.448h19.881v5.061c5.276-5.524,7.566-5.061,15.865-5.061
		c0.837,0,2.002,0.071,3.479,0.216v17.989c-1.679-0.359-3.177-0.54-4.495-0.54c-7.905,0-11.852,3.948-11.852,11.837V173.514z"/>
</g>
<g>
	<path fill="#E30613" d="M361.345,105.973c-9.49,0-16.313-1.234-21.965-6.551c-5.653-5.313-8.476-11.914-8.476-19.785
		c0-8.158,2.785-15.053,8.365-20.673c5.579-5.62,13.023-8.433,22.324-8.433c9.016,0,16.305,2.653,21.858,7.949
		c5.563,5.298,8.342,12.508,8.342,21.637c0,0.757-0.02,1.792-0.054,3.119h-37.737c0,0-0.424,6.502,3.822,6.618
		c4.248,0.113,28.44,0,28.44,0v16.119H361.345z M369.631,72.493c-0.037-3.681-0.803-6.16-2.287-7.43
		c-1.495-1.275-3.348-1.91-5.55-1.91c-5.23,0-7.846,3.117-7.846,9.34H369.631z"/>
	<path fill="#FFFFFF" d="M386.679,89.438v16.948h-25.334c-9.102,0-16.368-1.132-22.248-6.663c-5.71-5.367-8.604-12.125-8.604-20.086
		c0-8.24,2.854-15.293,8.484-20.963c5.635-5.678,13.245-8.556,22.617-8.556c9.082,0,16.532,2.712,22.144,8.063
		c5.619,5.353,8.468,12.733,8.468,21.936c0,0.76-0.017,1.799-0.054,3.129l-0.011,0.402h-37.736c-0.004,0.965,0.111,3.5,1.367,4.876
		c0.541,0.593,1.217,0.892,2.065,0.916c1.249,0.032,4.48,0.05,9.607,0.05 M361.594,50.944c-9.145,0-16.557,2.797-22.03,8.311
		c-5.472,5.511-8.246,12.369-8.246,20.382c0,7.725,2.808,14.279,8.346,19.484c5.7,5.362,12.522,6.439,21.682,6.439h24.508V90.27
		c-2.12,0.008-10.571,0.049-18.408,0.049c-5.134,0-8.374-0.018-9.63-0.051c-1.071-0.03-1.964-0.428-2.655-1.186
		c-1.801-1.974-1.579-5.713-1.569-5.872l0.025-0.386h37.721c0.03-1.131,0.043-2.029,0.043-2.706c0-8.967-2.762-16.147-8.212-21.338
		C377.715,53.58,370.457,50.944,361.594,50.944z M370.049,72.905h-16.514v-0.413c0-6.471,2.778-9.753,8.259-9.753
		c2.298,0,4.255,0.677,5.818,2.008c1.575,1.351,2.394,3.954,2.432,7.741L370.049,72.905z M354.365,72.08h14.845
		c-0.086-3.31-0.804-5.563-2.135-6.703c-1.409-1.202-3.187-1.812-5.281-1.812C356.909,63.565,354.476,66.352,354.365,72.08z"/>
</g>
<g>
	<g>
		<g>
			<g>
				<path fill="#E30613" d="M442.104,82.024c-7.508,0.573-30.114,0-30.114,0v38.696h43.142v-13.61
					c23.562-0.075,45.363-15.101,45.363-38.682c0-23.371-18.744-42.33-42.016-42.741v-0.041l-62.155,1.358v30.542
					c0,0,36.49-0.66,46.592-0.66c3.932,0,8.996-0.527,9.75,11.056C453.391,79.055,446.227,81.71,442.104,82.024z"/>
				<path fill="#FFFFFF" d="M455.684,121.272h-44.245V81.46l0.565,0.015c0.1,0.003,10.143,0.253,18.956,0.253
					c5.167,0,8.903-0.083,11.103-0.253c2.553-0.194,10.821-1.743,10.055-13.497c-0.688-10.543-5.027-10.543-8.195-10.543
					l-1.006,0.003c-9.981,0-46.217,0.653-46.582,0.662l-0.56,0.009V26.466l63.255-1.382v0.066
					c23.22,0.701,42.018,20.003,42.018,43.279c0,25.179-23.269,38.934-45.363,39.228V121.272z M412.54,120.169h42.04v-13.606
					l0.549-0.003c21.726-0.068,44.815-13.458,44.815-38.131c0-22.859-18.604-41.787-41.475-42.191l-0.541-0.027l-61.055,1.334
					v29.442c4.65-0.083,36.735-0.649,46.042-0.649l1.006-0.005c4.32,0,8.599,0.894,9.294,11.576
					c0.66,10.14-5.284,14.224-11.069,14.667c-2.229,0.169-5.992,0.255-11.187,0.255c-7.628,0-16.173-0.188-18.42-0.242V120.169z"/>
			</g>
		</g>
	</g>
</g>
<g>
	<g>
		<g>
			<g>
				<rect x="412.311" y="131.116" fill="#E30613" width="42.294" height="41.813"/>
				<path fill="#FFFFFF" d="M455.155,173.481h-43.395v-42.917h43.395V173.481z M412.861,172.377h41.193v-40.71h-41.193V172.377z"/>
			</g>
		</g>
	</g>
</g>
<g>
	<path fill="#E30613" d="M187.332,167.912c0-2.729-0.046-4.685-0.046-8.722v-21.18c0-5.736-0.36-9.615-1.072-11.629
		c-0.713-2.017-2.113-3.927-4.198-5.74c-2.089-1.806-4.919-3.136-8.502-3.99c-3.583-0.853-7.514-1.28-11.79-1.28
		c-15.333,0-11.044,0-22.739,0l0.131,12.997c4.568,0,17.131-0.371,21.927-0.371c2.054,0,3.612,0.382,4.672,1.147
		c1.059,0.77,1.59,2.313,1.59,4.641c0,0.949,0,2.421,0,2.421c-30.979-2.585-33.912,2.976-33.421,16.505
		c0.875,24.105,33.608,10.639,34.789,10.096v5.158L187.332,167.912z M165.41,154.923c-2.919,2.193-4.941,2.077-7.683,2.026
		c-7.495-0.129-6.52-7.121-4.419-8.966c3.388-2.974,13.478-1.062,13.478-1.062S168.327,152.731,165.41,154.923z"/>
	<path fill="#FFFFFF" d="M168.261,168.377v-4.982c-2.23,0.75-10.057,4.361-17.776,4.361c-11.128,0-17.012-6.104-17.013-15.047
		c-0.001-6.145,0.546-10.261,3.351-13.119c2.996-3.053,8.473-4.416,17.76-4.416c3.493,0,7.523,0.191,12.31,0.582v-1.973
		c0-2.173-0.479-3.623-1.42-4.306c-0.981-0.708-2.472-1.069-4.429-1.069c-2.423,0-6.883,0.097-11.196,0.19
		c-4.356,0.093-8.47,0.182-10.73,0.182h-0.409l-0.14-13.822h23.156c4.285,0,8.284,0.435,11.885,1.291
		c3.626,0.865,6.545,2.236,8.677,4.08c2.133,1.854,3.585,3.844,4.318,5.915c0.727,2.058,1.095,6.017,1.095,11.767v21.18
		c0,2.215,0.014,3.803,0.027,5.234c0.01,1.18,0.02,2.256,0.02,3.487v0.411L168.261,168.377z M169.086,162.16v5.389l17.833-0.048
		c-0.002-1.063-0.01-2.024-0.02-3.069c-0.013-1.434-0.026-3.022-0.026-5.241v-21.18c0-5.656-0.353-9.522-1.048-11.492
		c-0.684-1.934-2.057-3.806-4.08-5.565c-2.029-1.755-4.832-3.067-8.327-3.9c-3.539-0.842-7.473-1.27-11.694-1.27h-22.321
		l0.123,12.169c2.338-0.01,6.383-0.097,10.303-0.182c4.318-0.093,8.783-0.188,11.214-0.188c2.134,0,3.788,0.412,4.914,1.225
		c1.168,0.849,1.761,2.522,1.761,4.976v2.87l-0.447-0.038c-4.96-0.414-9.11-0.613-12.688-0.613c-9.046,0-14.342,1.285-17.17,4.167
		c-2.607,2.657-3.116,6.61-3.115,12.54c0.002,8.523,5.448,14.222,16.188,14.222c8.535,0,17.441-4.235,18.016-4.501L169.086,162.16z
		 M159.114,157.383c-0.363,0-0.735-0.008-1.121-0.016l-0.274-0.005c-4.143-0.071-5.537-2.196-6-3.456
		c-0.843-2.297,0-5.076,1.315-6.233c1.338-1.174,3.748-1.77,7.163-1.77c3.396,0,6.632,0.606,6.664,0.612l0.256,0.048l0.066,0.251
		c0.066,0.25,1.578,6.105-1.526,8.439C163.041,157.22,161.069,157.383,159.114,157.383z M160.197,146.731
		c-3.163,0-5.451,0.541-6.618,1.564c-1.087,0.954-1.8,3.376-1.084,5.326c0.683,1.859,2.495,2.869,5.239,2.916l0.275,0.005
		c2.372,0.039,4.275,0.212,7.152-1.95c2.331-1.75,1.528-6.201,1.284-7.312C165.618,147.141,162.96,146.731,160.197,146.731z"/>
</g>
</svg>
