<?xml version="1.0" standalone="no"?>
<!DOCTYPE svg PUBLIC "-//W3C//DTD SVG 20010904//EN"
 "http://www.w3.org/TR/2001/REC-SVG-20010904/DTD/svg10.dtd">
<svg version="1.0" xmlns="http://www.w3.org/2000/svg"
 width="2128.000000pt" height="2128.000000pt" viewBox="0 0 2128.000000 2128.000000"
 preserveAspectRatio="xMidYMid meet">
<metadata>
Created by potrace 1.11, written by Peter Selinger 2001-2013
</metadata>
<g transform="translate(0.000000,2128.000000) scale(0.100000,-0.100000)"
fill="#000000" stroke="none">
<path d="M2515 14913 c-454 -23 -902 -172 -1275 -423 -642 -432 -1089 -1158
-1200 -1949 -37 -259 -40 -407 -40 -1906 0 -1499 3 -1647 40 -1906 134 -951
745 -1787 1578 -2158 222 -99 452 -163 712 -198 130 -17 460 -18 8310 -18
7831 0 8181 1 8310 18 660 89 1219 399 1657 921 317 378 549 892 627 1386 41
261 41 276 41 1955 0 1679 0 1694 -41 1955 -107 683 -486 1345 -1009 1763
-377 301 -769 470 -1265 544 -108 16 -599 18 -8250 18 -4474 1 -8162 0 -8195
-2z m16540 -195 c494 -98 882 -301 1239 -648 225 -219 388 -443 527 -725 138
-282 208 -505 262 -834 l22 -136 0 -1740 0 -1740 -22 -136 c-82 -503 -261
-924 -551 -1299 -88 -113 -295 -325 -408 -415 -319 -258 -687 -424 -1094 -496
l-135 -24 -8255 0 -8255 0 -135 24 c-407 72 -775 238 -1094 496 -113 90 -320
302 -408 415 -290 375 -469 796 -551 1299 l-22 136 0 1740 0 1740 22 136 c54
329 124 552 262 834 139 282 302 506 527 725 299 291 629 485 1009 593 105 30
308 69 415 80 19 2 3743 3 8275 2 l8240 -1 130 -26z"/>
<path d="M2800 14413 c-191 -19 -418 -71 -587 -134 -238 -87 -514 -246 -701
-402 -98 -82 -281 -270 -355 -364 -298 -378 -478 -828 -527 -1322 -14 -141
-14 -2971 0 -3112 49 -494 229 -944 527 -1322 74 -94 257 -282 355 -364 187
-156 463 -315 701 -402 127 -47 299 -92 452 -118 106 -17 373 -18 7975 -18
7588 0 7869 1 7975 18 430 72 837 256 1153 520 98 82 281 270 355 364 298 378
478 828 527 1322 14 141 14 2971 0 3112 -49 494 -229 944 -527 1322 -74 94
-257 282 -355 364 -123 102 -321 229 -473 303 -217 106 -390 162 -645 212
l-115 22 -7850 2 c-4317 0 -7866 -1 -7885 -3z m15654 -503 c337 -32 652 -158
921 -368 103 -80 261 -246 337 -353 80 -112 184 -310 227 -432 61 -173 89
-321 98 -502 20 -438 -131 -816 -444 -1116 -308 -295 -736 -478 -1213 -519
-63 -5 -123 -10 -132 -10 -17 0 -18 -20 -18 -270 l0 -270 -22 -5 c-13 -3 -412
-4 -888 -3 l-865 3 -3 797 -2 798 602 -2 c643 -2 678 0 785 47 104 46 175 127
215 244 20 57 23 84 22 206 -1 204 -34 322 -112 399 -71 72 -32 70 -1050 55
-499 -8 -947 -14 -997 -14 l-90 0 -3 628 -2 627 22 9 c13 5 214 12 448 16 234
4 747 15 1140 25 913 22 895 22 1024 10z m-12116 -713 l2 -498 50 50 c137 137
324 220 540 240 454 43 823 -179 869 -522 7 -50 11 -380 11 -893 l0 -814 -489
0 -490 0 -3 728 c-5 805 -4 802 -68 856 -101 85 -311 47 -390 -70 l-25 -38 -5
-735 -5 -736 -492 -3 -493 -2 0 1470 0 1470 493 -2 492 -3 3 -498z m5412 -23
l0 -427 48 45 c91 85 203 149 332 190 67 21 94 23 255 23 158 0 190 -3 259
-23 236 -68 407 -228 463 -432 17 -60 18 -130 18 -915 l0 -850 -472 -3 -473
-2 0 667 c0 368 -4 705 -10 751 -11 98 -39 155 -84 174 -45 19 -163 15 -206
-6 -45 -23 -87 -63 -108 -101 -15 -27 -17 -93 -20 -627 l-3 -598 23 0 c13 0
78 -7 146 -16 l122 -17 0 -284 c0 -266 -1 -284 -17 -279 -10 2 -69 10 -131 17
-154 16 -258 8 -327 -25 -70 -35 -88 -71 -93 -188 l-4 -88 276 0 276 0 2 -256
3 -256 44 64 c178 254 461 425 783 472 134 20 341 20 473 1 361 -54 652 -245
826 -542 l39 -67 2 289 3 290 398 3 397 2 0 -101 0 -101 57 52 c122 112 195
139 393 147 74 3 179 2 233 -2 l97 -7 0 -359 c0 -335 -1 -359 -17 -359 -10 1
-52 5 -93 10 -95 11 -227 -3 -303 -31 -109 -41 -193 -141 -228 -270 -8 -30
-14 -225 -18 -604 l-6 -560 -455 0 -455 0 -3 299 -2 300 -44 -77 c-109 -192
-293 -358 -499 -451 -378 -172 -913 -148 -1244 55 -220 135 -414 391 -487 642
-70 242 -50 567 50 786 13 29 24 57 24 62 0 5 -117 9 -260 9 l-260 0 -2 -812
-3 -813 -400 0 -400 0 -3 813 -2 812 -165 0 -165 0 2 278 3 277 163 3 162 2 0
94 c0 131 17 285 40 359 11 34 37 92 60 129 l40 67 0 1395 0 1396 475 0 475 0
0 -426z m-2354 -184 c295 -20 512 -85 707 -213 201 -132 350 -308 432 -509 55
-137 70 -229 69 -418 -1 -145 -4 -177 -27 -265 -32 -119 -107 -275 -176 -366
-143 -188 -357 -340 -586 -417 -194 -65 -284 -77 -560 -76 -270 0 -345 10
-523 69 -361 120 -651 414 -759 770 -25 84 -27 102 -27 285 -1 226 13 296 89
457 186 395 588 645 1096 682 63 4 116 9 119 9 3 1 68 -3 146 -8z m-6873 -117
c147 -476 301 -960 307 -966 4 -4 21 38 37 95 17 57 86 285 153 508 66 223
123 413 126 423 5 16 32 17 379 17 347 0 374 -1 379 -17 5 -18 36 -125 124
-423 27 -91 78 -262 112 -380 35 -118 66 -218 70 -222 3 -5 84 228 180 517
l175 525 347 0 c223 0 348 -4 348 -10 0 -5 -11 -38 -25 -72 -13 -35 -54 -144
-91 -243 -67 -184 -104 -283 -249 -675 -46 -124 -106 -287 -134 -362 -28 -76
-73 -199 -101 -273 -27 -74 -50 -137 -50 -140 0 -3 135 -5 300 -5 l300 0 0
-1480 0 -1480 -455 0 -455 0 0 1275 0 1275 -285 0 -284 0 -15 53 c-23 77 -221
780 -268 947 -22 80 -43 150 -47 157 -3 6 -73 -217 -155 -495 -82 -279 -160
-542 -173 -584 l-24 -78 -358 0 -358 0 -91 243 c-50 133 -121 321 -157 417
-37 96 -151 400 -255 675 -104 275 -218 578 -254 674 -36 96 -66 175 -66 177
0 2 223 4 495 4 l494 0 24 -77z m12062 37 c144 -12 225 -28 338 -64 278 -92
511 -290 636 -542 83 -168 121 -341 124 -576 l2 -153 -754 -3 -753 -2 4 -53
c5 -62 38 -136 70 -157 20 -13 110 -15 621 -18 l597 -3 -2 -337 -3 -337 -540
-3 c-324 -2 -598 1 -685 8 -373 28 -616 148 -805 397 -166 219 -237 480 -214
776 24 294 138 536 351 743 221 215 458 306 864 333 12 0 78 -4 149 -9z
m-11185 -2451 c290 -36 494 -184 630 -457 96 -194 135 -390 135 -682 0 -155
-5 -231 -19 -310 -76 -436 -300 -727 -633 -822 -112 -32 -314 -32 -428 0 -106
31 -200 82 -274 149 l-61 54 -2 -433 -3 -433 -462 -3 -463 -2 0 1450 0 1450
428 -2 427 -3 5 -119 c5 -113 6 -118 20 -91 8 15 44 54 80 87 147 135 379 197
620 167z m5215 -61 c4 -13 79 -248 167 -523 87 -275 164 -515 170 -533 5 -18
12 -31 14 -29 3 2 87 251 188 553 l183 549 341 3 c190 1 342 -2 342 -6 0 -5
-24 -74 -54 -153 -30 -79 -226 -603 -436 -1164 -406 -1085 -440 -1171 -503
-1268 -130 -202 -270 -298 -507 -348 -95 -20 -136 -22 -425 -23 l-320 -1 0
315 0 315 250 6 c302 8 375 22 424 85 25 31 27 79 7 144 -8 25 -190 486 -406
1025 -216 539 -401 1001 -411 1028 l-19 47 494 0 495 0 6 -22z m-1770 -106
c122 -23 266 -70 335 -110 116 -66 229 -182 270 -277 52 -123 60 -248 60
-1052 l0 -673 -390 0 -390 0 0 95 c0 70 -3 95 -13 95 -7 0 -74 -22 -149 -49
-76 -27 -188 -62 -250 -77 -104 -27 -127 -29 -303 -29 -180 1 -194 2 -270 28
-210 70 -340 206 -391 407 -25 99 -15 408 16 505 65 205 198 296 502 341 95
14 162 16 423 10 171 -3 325 -9 344 -12 l34 -7 -5 89 c-6 113 -23 148 -86 177
-53 25 -109 26 -722 18 l-315 -5 -3 278 -2 277 597 -4 c555 -4 606 -5 708 -25z
m11355 -1452 l0 -860 -870 0 -870 0 0 853 c0 470 3 857 7 860 3 4 395 7 870 7
l863 0 0 -860z"/>
<path d="M17535 13849 c-1182 -25 -1384 -30 -1512 -35 l-143 -6 0 -579 0 -580
693 8 c1025 12 1273 11 1329 -6 107 -31 184 -146 212 -320 59 -353 -46 -599
-291 -688 -106 -38 -267 -46 -825 -41 l-498 5 0 -744 0 -743 835 0 835 0 0
268 0 268 153 12 c309 24 569 92 811 213 456 228 738 580 828 1031 26 132 30
369 9 503 -96 616 -504 1121 -1087 1344 -103 39 -258 78 -364 91 -93 11 -445
11 -985 -1z"/>
<path d="M10840 12209 l0 -1351 28 22 c50 39 106 73 158 97 124 56 348 86 571
76 l112 -6 3 599 c3 596 3 599 25 640 46 87 140 137 253 138 117 1 177 -40
212 -143 9 -27 13 -223 16 -748 l3 -713 435 0 435 0 -3 828 c-4 789 -5 830
-24 898 -66 237 -296 402 -588 423 -287 20 -496 -52 -674 -231 -42 -43 -80
-78 -84 -78 -5 0 -8 203 -8 450 l0 450 -435 0 -435 0 0 -1351z"/>
<path d="M12985 9641 c-85 -39 -139 -131 -166 -281 -18 -99 -19 -517 -1 -615
27 -148 71 -224 155 -266 60 -31 159 -30 223 2 91 45 123 110 156 326 19 120
15 500 -5 591 -34 147 -90 228 -174 251 -59 17 -143 13 -188 -8z"/>
<path d="M9172 12438 c-50 -17 -118 -83 -146 -141 -48 -99 -61 -199 -61 -452
0 -379 38 -506 170 -571 46 -22 71 -27 133 -28 43 0 94 5 115 13 50 17 103 64
128 113 50 98 85 373 75 585 -14 280 -61 409 -169 465 -49 25 -190 34 -245 16z"/>
<path d="M4347 11123 c-4 -3 -7 -651 -7 -1440 l0 -1433 415 0 415 0 0 1440 0
1440 -408 0 c-225 0 -412 -3 -415 -7z"/>
<path d="M14340 12868 c-401 -22 -731 -218 -933 -553 -192 -320 -199 -796 -16
-1107 150 -256 352 -406 629 -468 141 -32 320 -40 888 -40 l512 0 0 300 0 299
-579 3 c-570 3 -580 3 -608 24 -61 45 -90 112 -95 219 l-3 60 758 3 757 2 0
53 c0 88 -20 287 -36 356 -95 420 -375 706 -794 813 -135 34 -294 46 -480 36z
m298 -493 c107 -58 148 -134 159 -292 l6 -83 -338 0 -338 0 7 71 c13 124 40
195 101 255 69 69 117 85 250 81 89 -2 106 -6 153 -32z"/>
<path d="M14335 12345 c-27 -13 -57 -30 -65 -37 -49 -41 -90 -145 -90 -225 l0
-43 290 0 290 0 0 30 c0 51 -21 133 -46 180 -44 81 -123 119 -249 119 -65 1
-89 -4 -130 -24z"/>
<path d="M3199 10418 c-110 -8 -225 -42 -308 -91 -71 -42 -160 -141 -205 -227
-21 -39 -41 -70 -47 -70 -5 0 -9 72 -9 175 l0 175 -380 0 -380 0 0 -1410 0
-1410 420 0 420 0 0 478 1 477 26 -35 c52 -68 160 -165 219 -197 102 -55 202
-77 339 -77 209 0 361 57 502 188 159 148 257 342 305 606 30 165 30 476 0
640 -49 267 -145 458 -298 599 -70 64 -187 130 -278 156 -73 21 -215 31 -327
23z m-134 -503 c45 -18 90 -60 119 -110 100 -170 113 -704 24 -942 -48 -129
-157 -188 -295 -161 -50 10 -65 19 -113 67 -90 90 -90 91 -90 565 0 400 0 401
24 451 56 122 206 181 331 130z"/>
<path d="M2875 9869 c-56 -30 -85 -58 -106 -104 -17 -37 -19 -72 -19 -430 0
-225 4 -405 10 -425 17 -60 66 -127 109 -150 45 -22 140 -27 188 -9 35 13 80
55 99 92 68 130 90 536 43 791 -17 88 -64 181 -112 220 -33 26 -48 31 -105 33
-53 3 -75 -1 -107 -18z"/>
<path d="M7699 10333 c10 -27 191 -478 401 -1003 210 -525 388 -975 396 -1000
13 -47 17 -76 15 -124 -2 -46 -64 -100 -146 -126 -62 -20 -96 -23 -307 -28
l-238 -4 0 -281 0 -280 288 6 c218 5 312 11 393 26 226 41 360 130 486 324 65
99 98 180 343 837 123 327 316 844 430 1148 l207 552 -300 -2 -300 -3 -197
-590 c-108 -324 -200 -590 -205 -590 -5 0 -43 108 -86 240 -88 275 -284 889
-294 923 l-6 22 -450 0 -449 0 19 -47z"/>
<path d="M5580 10044 l0 -237 459 8 c413 7 464 6 516 -10 121 -35 147 -76 153
-244 l4 -114 -83 7 c-191 14 -596 18 -699 7 -213 -25 -334 -67 -418 -145 -94
-88 -123 -182 -129 -421 -4 -137 -2 -184 11 -235 50 -199 182 -329 391 -386
80 -22 305 -30 404 -14 162 26 353 81 497 145 86 38 84 40 84 -80 l0 -105 351
0 350 0 -4 733 c-4 631 -7 744 -21 816 -52 260 -264 423 -636 487 -78 14 -199
17 -662 21 l-568 4 0 -237z m1042 -973 c32 -4 60 -10 63 -13 13 -13 26 -138
20 -190 -10 -82 -40 -136 -102 -179 -82 -57 -144 -72 -276 -67 -95 3 -119 7
-162 29 -68 34 -108 94 -113 169 -11 146 67 235 228 259 67 10 241 6 342 -8z"/>
<path d="M6313 9040 c-101 -11 -174 -46 -198 -96 -48 -100 -20 -207 65 -254
41 -23 55 -25 170 -25 117 0 129 2 182 28 108 53 146 131 130 267 l-7 65 -45
6 c-87 12 -226 16 -297 9z"/>
<path d="M16520 8840 l0 -810 815 0 815 0 0 810 0 810 -815 0 -815 0 0 -810z"/>
</g>
</svg>
